#!OML:ASF I:\Actors\actors\Patient Classification 1\Patient 1\Session 1\Subject1.ASF
:FULLY-SPECIFIED
:DEGREES
892
root 0.863147 17.5273 9.41629 12.6358 -6.76248 -11.1535
lowerback 2.29542 5.00987 8.41737
upperback -7.30877 7.32481 -0.021248
thorax -8.00027 3.05599 -5.29873
lowerneck -15.8218 -3.10834 0.0729233
upperneck 27.1454 -6.43127 6.58384
head 11.7458 -2.04843 1.48039
rclavicle -2.62644e-014 -3.18055e-015
rhumerus 34.8566 53.5396 -49.7589
rradius 76.107
rwrist 14.2393
rhand 23.1891 -40.2526
rfingers 7.12502
rthumb 47.4935 -62.6983
lclavicle -2.62644e-014 -3.18055e-015
lhumerus -43.6645 -0.558398 89.0559
lradius 111.504
lwrist 5.57906
lhand -36.3431 -27.129
lfingers 7.12502
lthumb -9.44083 2.63954
rfemur -7.68378 25.4016 25.0515
rtibia 2.0086
rfoot -10.1173 -19.5649
rtoes -3.24945
lfemur 5.94016 -47.7018 -11.6598
ltibia -4.78406
lfoot -36.1408 57.4258
ltoes 21.0114
893
root 0.851918 17.5267 9.41555 12.564 -6.45855 -11.1719
lowerback 2.31799 4.98824 8.20893
upperback -7.30871 7.28839 0.0272971
thorax -8.04639 3.05129 -5.13535
lowerneck -15.9132 -3.18237 -0.138586
upperneck 27.1304 -6.55614 6.8456
head 11.7827 -2.09092 1.59369
rclavicle 1.29707e-014 1.66979e-014
rhumerus 31.527 52.7539 -53.8121
rradius 75.1317
rwrist 10.9679
rhand 23.2586 -40.3405
rfingers 7.12502
rthumb 47.5578 -62.7571
lclavicle 1.29707e-014 1.66979e-014
lhumerus -43.7005 -0.742496 89.0732
lradius 111.454
lwrist 5.72488
lhand -36.68 -27.0876
lfingers 7.12502
lthumb -9.76589 2.66595
rfemur -7.55214 25.3672 25.1729
rtibia 1.96279
rfoot -10.2523 -19.7376
rtoes -2.75145
lfemur 5.95562 -47.9798 -11.5968
ltibia -4.73213
lfoot -36.3826 57.3835
ltoes 21.2031
894
root 0.841104 17.5259 9.41449 12.4997 -6.1731 -11.2542
lowerback 2.27352 4.98486 8.05869
upperback -7.29644 7.27315 0.0847632
thorax -8.03185 3.05744 -4.98707
lowerneck -16.0173 -3.24608 -0.2673
upperneck 27.2037 -6.68422 7.06137
head 11.8531 -2.12865 1.67643
rclavicle -1.95803e-014 -1.03368e-014
rhumerus 28.0959 51.8996 -57.7302
rradius 74.563
rwrist 7.01699
rhand 23.0796 -40.6704
rfingers 7.12502
rthumb 47.3924 -63.1618
lclavicle -1.95803e-014 -1.03368e-014
lhumerus -43.6985 -1.03306 89.0633
lradius 111.415
lwrist 5.97539
lhand -36.9995 -27.2461
lfingers 7.12502
lthumb -10.0741 2.49277
rfemur -7.46001 25.1759 25.367
rtibia 1.94852
rfoot -10.3054 -19.7689
rtoes -2.4661
lfemur 5.88354 -47.9594 -11.3532
ltibia -4.73763
lfoot -35.9048 57.2774
ltoes 20.8117
895
root 0.826378 17.5297 9.417 12.5306 -6.00644 -10.9571
lowerback 2.06098 5.00402 7.42844
upperback -7.31667 7.23591 0.045437
thorax -7.99415 3.0823 -4.66304
lowerneck -16.102 -3.31481 -0.33053
upperneck 27.254 -6.8199 7.22229
head 11.9068 -2.17114 1.72638
rclavicle 6.6891e-014 1.82882e-014
rhumerus 24.5992 50.9539 -61.5466
rradius 74.4055
rwrist 1.7901
rhand 22.2564 -41.5185
rfingers 7.12502
rthumb 46.631 -64.3456
lclavicle 6.6891e-014 1.82882e-014
lhumerus -43.6518 -1.39902 89.0254
lradius 111.356
lwrist 6.31839
lhand -37.3297 -27.5257
lfingers 7.12502
lthumb -10.3927 2.19744
rfemur -7.57779 25.212 25.0224
rtibia 1.98758
rfoot -10.372 -19.9914
rtoes -2.20821
lfemur 5.70103 -48.3032 -11.5065
ltibia -4.67963
lfoot -36.0725 57.3979
ltoes 20.7425
896
root 0.807989 17.5388 9.42276 12.6479 -5.91314 -10.2579
lowerback 1.70397 5.04153 6.32011
upperback -7.3747 7.17852 -0.114817
thorax -7.95086 3.12444 -4.19231
lowerneck -16.1028 -3.44512 -0.485277
upperneck 27.1845 -7.03656 7.48743
head 11.9093 -2.25245 1.81785
rclavicle -3.57564e-014 -1.51076e-014
rhumerus 20.9321 49.7209 -65.3299
rradius 74.6253
rwrist -3.93122
rhand 21.5216 -42.408
rfingers 7.12502
rthumb 45.9498 -65.5234
lclavicle -3.57564e-014 -1.51076e-014
lhumerus -43.579 -1.88733 88.9612
lradius 111.267
lwrist 6.65238
lhand -37.5089 -27.5085
lfingers 7.12502
lthumb -10.5655 2.20592
rfemur -7.8523 25.5491 24.1216
rtibia 2.04179
rfoot -10.5448 -20.5236
rtoes -1.79657
lfemur 5.27689 -48.782 -11.9755
ltibia -4.50301
lfoot -36.5473 57.5417
ltoes 20.8508
897
root 0.797014 17.5437 9.42686 12.6774 -5.65827 -9.90763
lowerback 1.51742 5.03577 5.69961
upperback -7.41727 7.11869 -0.164798
thorax -7.95435 3.13436 -3.88782
lowerneck -16.0001 -3.58958 -0.651348
upperneck 27.0141 -7.24132 7.69741
head 11.8489 -2.34314 1.89217
rclavicle -7.23079e-015 9.54166e-015
rhumerus 17.2927 48.6066 -68.761
rradius 75.442
rwrist -9.46347
rhand 19.46 -43.5693
rfingers 7.12502
rthumb 44.0317 -67.4403
lclavicle -7.23079e-015 9.54166e-015
lhumerus -43.5675 -2.37007 88.9308
lradius 111.212
lwrist 7.04936
lhand -37.4817 -27.2904
lfingers 7.12502
lthumb -10.5393 2.42541
rfemur -7.91351 25.6008 23.7286
rtibia 2.0511
rfoot -10.6831 -20.8827
rtoes -1.55111
lfemur 4.91591 -48.8526 -12.0604
ltibia -4.38131
lfoot -36.0377 57.4327
ltoes 20.3373
898
root 0.792158 17.5437 9.43052 12.5959 -5.30177 -9.87937
lowerback 1.53506 5.00742 5.58261
upperback -7.45042 7.0777 -0.157434
thorax -8.01861 3.11907 -3.81858
lowerneck -15.8495 -3.71738 -0.794416
upperneck 26.7608 -7.41378 7.8897
head 11.7439 -2.42376 1.96023
rclavicle 3.09359e-014 4.45278e-014
rhumerus 13.4675 47.3475 -72.2999
rradius 76.4671
rwrist -13.8098
rhand 17.2155 -44.2052
rfingers 7.12502
rthumb 41.9328 -68.8178
lclavicle 3.09359e-014 4.45278e-014
lhumerus -43.6089 -2.85078 88.8544
lradius 111.183
lwrist 7.56603
lhand -37.5723 -27.1734
lfingers 7.12502
lthumb -10.6267 2.53787
rfemur -7.77274 25.3214 23.8176
rtibia 2.04185
rfoot -10.6586 -21.001
rtoes -2.01529
lfemur 4.80091 -48.7717 -11.9506
ltibia -4.33557
lfoot -35.224 57.2039
ltoes 19.8544
899
root 0.786905 17.5425 9.43831 12.4995 -4.96555 -9.84428
lowerback 1.50678 4.95784 5.46407
upperback -7.47265 7.00509 -0.134949
thorax -8.04904 3.09059 -3.72516
lowerneck -15.752 -3.82918 -1.09364
upperneck 26.5687 -7.56508 8.2133
head 11.686 -2.49105 2.10705
rclavicle -8.4235e-015 2.22639e-014
rhumerus 9.63289 45.9916 -75.8026
rradius 77.8148
rwrist -17.407
rhand 15.1348 -44.9074
rfingers 7.12502
rthumb 39.9785 -70.14
lclavicle -8.4235e-015 2.22639e-014
lhumerus -43.677 -3.21236 88.7379
lradius 111.163
lwrist 8.18163
lhand -37.8254 -27.1837
lfingers 7.12502
lthumb -10.8708 2.51492
rfemur -7.55051 25.2134 23.9152
rtibia 1.96994
rfoot -10.6666 -21.2921
rtoes -2.36005
lfemur 4.86019 -48.9157 -11.995
ltibia -4.31989
lfoot -34.7724 57.1567
ltoes 19.4876
900
root 0.784363 17.5401 9.44906 12.3849 -4.61442 -9.76841
lowerback 1.44125 4.87777 5.33423
upperback -7.47636 6.88871 -0.0920415
thorax -8.04486 3.04385 -3.59655
lowerneck -15.7225 -3.92048 -1.40892
upperneck 26.5006 -7.68015 8.48256
head 11.6865 -2.54431 2.24284
rclavicle -2.13694e-015 5.56597e-015
rhumerus 5.96342 44.5914 -79.0376
rradius 79.3347
rwrist -20.7145
rhand 13.4562 -45.613
rfingers 7.12502
rthumb 38.3965 -71.3032
lclavicle -2.13694e-015 5.56597e-015
lhumerus -43.8552 -3.42207 88.6323
lradius 111.195
lwrist 9.00628
lhand -38.0021 -27.0961
lfingers 7.12502
lthumb -11.0413 2.59346
rfemur -7.2393 25.2582 23.9796
rtibia 1.82382
rfoot -10.8005 -21.7504
rtoes -2.09122
lfemur 5.02624 -49.1704 -12.1839
ltibia -4.33366
lfoot -34.2971 57.2289
ltoes 18.8064
901
root 0.783075 17.5389 9.45452 12.3354 -4.21289 -9.708
lowerback 1.43657 4.79085 5.28383
upperback -7.52129 6.77273 -0.0697736
thorax -8.11022 2.98763 -3.54144
lowerneck -15.7255 -4.01107 -1.68469
upperneck 26.4384 -7.79661 8.71852
head 11.6936 -2.59717 2.35895
rclavicle 2.29596e-014 7.95139e-016
rhumerus 2.36111 43.0786 -82.1065
rradius 80.8025
rwrist -23.3861
rhand 12.0945 -46.1371
rfingers 7.12502
rthumb 37.1101 -72.173
lclavicle 2.29596e-014 7.95139e-016
lhumerus -44.0838 -3.56334 88.5251
lradius 111.275
lwrist 10.0899
lhand -38.0243 -26.6239
lfingers 7.12502
lthumb -11.0627 3.06453
rfemur -7.08211 25.2737 24.0085
rtibia 1.73963
rfoot -10.9462 -22.2109
rtoes -1.78194
lfemur 4.85287 -49.0937 -12.0519
ltibia -4.34677
lfoot -33.3001 57.0131
ltoes 17.9975
902
root 0.778317 17.541 9.45423 12.3935 -3.75822 -9.82696
lowerback 1.4583 4.69626 5.3883
upperback -7.61637 6.66383 0.00500692
thorax -8.23632 2.92321 -3.52161
lowerneck -15.7582 -4.12272 -2.03058
upperneck 26.3375 -7.9253 8.97221
head 11.697 -2.66094 2.49057
rclavicle -2.60905e-015 3.18055e-015
rhumerus -0.985412 41.6447 -84.8683
rradius 81.9964
rwrist -25.2321
rhand 11.3242 -46.1534
rfingers 7.12502
rthumb 36.3812 -72.3753
lclavicle -2.60905e-015 3.18055e-015
lhumerus -44.2824 -3.57059 88.4334
lradius 111.333
lwrist 11.1099
lhand -37.8749 -26.0108
lfingers 7.12502
lthumb -10.9186 3.68528
rfemur -7.1317 25.281 24.188
rtibia 1.76526
rfoot -11.09 -22.6379
rtoes -1.52322
lfemur 4.31744 -48.7253 -11.3615
ltibia -4.37619
lfoot -31.9422 56.5343
ltoes 17.1652
903
root 0.773956 17.5454 9.45665 12.3579 -3.33413 -9.91896
lowerback 1.50564 4.59036 5.47245
upperback -7.64712 6.53848 0.0965018
thorax -8.31243 2.85552 -3.47044
lowerneck -15.8614 -4.22222 -2.19875
upperneck 26.2204 -7.99515 8.92104
head 11.681 -2.71668 2.48541
rclavicle -2.5345e-015 -1.98785e-014
rhumerus -4.04864 40.266 -87.2948
rradius 82.9234
rwrist -26.3716
rhand 11.892 -46.0582
rfingers 7.12502
rthumb 36.9185 -72.1437
lclavicle -2.5345e-015 -1.98785e-014
lhumerus -44.4732 -3.38694 88.3575
lradius 111.34
lwrist 11.7884
lhand -37.7375 -25.5182
lfingers 7.12502
lthumb -10.786 4.18484
rfemur -7.06398 25.2514 24.3665
rtibia 1.79153
rfoot -11.2758 -22.9672
rtoes -1.16182
lfemur 4.0327 -48.5438 -10.9391
ltibia -4.36417
lfoot -31.003 56.1381
ltoes 16.5434
904
root 0.771814 17.5478 9.46013 12.2674 -3.01563 -9.91256
lowerback 1.52814 4.47948 5.47211
upperback -7.61147 6.39532 0.178055
thorax -8.30923 2.7887 -3.37589
lowerneck -15.9626 -4.23754 -2.19204
upperneck 26.0123 -7.92599 8.67524
head 11.6022 -2.7196 2.39771
rclavicle -2.82771e-014 7.95139e-016
rhumerus -6.51999 39.3295 -89.1599
rradius 83.5697
rwrist -27.6075
rhand 12.5938 -46.2368
rfingers 7.12502
rthumb 37.5821 -72.1486
lclavicle -2.82771e-014 7.95139e-016
lhumerus -44.7183 -2.9418 88.2832
lradius 111.349
lwrist 12.1939
lhand -37.771 -25.1091
lfingers 7.12502
lthumb -10.8184 4.59231
rfemur -6.94538 25.1492 24.4386
rtibia 1.82587
rfoot -11.3755 -23.154
rtoes -1.3493
lfemur 3.95059 -48.4842 -10.8347
ltibia -4.34513
lfoot -30.4757 55.8718
ltoes 16.1972
905
root 0.769711 17.5445 9.45389 12.2051 -2.96251 -9.75556
lowerback 1.64531 4.4158 5.27696
upperback -7.58682 6.30791 0.218532
thorax -8.38186 2.75773 -3.23117
lowerneck -16.0242 -4.19895 -2.25858
upperneck 25.7654 -7.79864 8.57879
head 11.508 -2.68731 2.38737
rclavicle -3.16813e-014 2.22639e-014
rhumerus -7.87443 39.3319 -90.2525
rradius 83.5095
rwrist -29.5121
rhand 12.0991 -46.385
rfingers 7.12502
rthumb 37.1144 -72.4198
lclavicle -3.16813e-014 2.22639e-014
lhumerus -45.0184 -2.3407 88.1899
lradius 111.383
lwrist 12.5075
lhand -37.9039 -24.7055
lfingers 7.12502
lthumb -10.9466 4.98914
rfemur -6.99182 25.069 24.2693
rtibia 1.96746
rfoot -11.3078 -23.1757
rtoes -2.07318
lfemur 3.89583 -48.4629 -10.9539
ltibia -4.31645
lfoot -30.4176 55.7841
ltoes 16.2465
906
root 0.768899 17.5384 9.43213 12.0076 -3.24583 -9.15771
lowerback 2.10897 4.42374 4.62689
upperback -7.55203 6.29846 0.12212
thorax -8.66782 2.78264 -3.0189
lowerneck -16.1057 -4.1805 -2.3337
upperneck 25.5975 -7.71934 8.52643
head 11.4545 -2.66863 2.38868
rclavicle -3.74958e-014 -1.35174e-014
rhumerus -8.56857 39.636 -90.9982
rradius 82.854
rwrist -31.1643
rhand 11.1969 -46.8428
rfingers 7.12502
rthumb 36.2607 -73.0949
lclavicle -3.74958e-014 -1.35174e-014
lhumerus -45.2836 -1.74573 88.1187
lradius 111.405
lwrist 12.91
lhand -38.1253 -24.3285
lfingers 7.12502
lthumb -11.1601 5.35472
rfemur -7.07621 25.1947 23.5287
rtibia 2.19698
rfoot -11.2741 -23.1648
rtoes -2.22506
lfemur 4.01898 -48.4917 -11.8032
ltibia -4.14349
lfoot -30.7774 55.8141
ltoes 16.6513
